<?xml version="1.0" standalone="no"?><!DOCTYPE svg PUBLIC "-//W3C//DTD SVG 1.1//EN" "http://www.w3.org/Graphics/SVG/1.1/DTD/svg11.dtd"><svg t="1610590281006" class="icon" viewBox="0 0 1024 1024" version="1.1" xmlns="http://www.w3.org/2000/svg" p-id="1000" xmlns:xlink="http://www.w3.org/1999/xlink" width="200" height="200"><defs><style type="text/css"></style></defs><path d="M704.07364371 905.2634664H363.55829674c-3.1759339 0-5.93761554-2.62359757-5.93761553-5.93761554V558.94858799c0-3.1759339 2.62359757-5.93761554 5.93761553-5.93761554h340.51534697c3.1759339 0 5.93761554 2.62359757 5.93761554 5.93761554v340.51534696c0 3.1759339-2.62359757 5.79953147-5.93761554 5.79953145z m-334.7158155-11.73714699H698.27411226V564.74811943H369.35782821v328.77819998z" fill="#717071" p-id="1001"></path><path d="M704.07364371 564.74811943H363.55829674c-2.89976573 0-5.24719513-2.07126124-5.79953145-4.83294286-0.55233633-2.76168163 1.10467265-5.5233633 3.72827023-6.48995188l75.25582486-27.61681646c0.69042042-0.27616816 1.38084082-0.41425225 2.07126123-0.41425224h340.51534697c2.89976573 0 5.24719513 2.07126124 5.79953145 4.83294287s-1.10467265 5.5233633-3.72827023 6.48995187l-75.25582486 27.61681647c-0.69042042 0.27616816-1.38084082 0.41425225-2.07126123 0.41425223z m-307.51325129-11.73714698h306.40857863l43.22031776-15.87966948H439.91879427l-43.35840185 15.87966948z" fill="#717071" p-id="1002"></path><path d="M363.55829674 797.28171404H56.18312954c-3.1759339 0-5.93761554-2.62359757-5.93761553-5.93761553V450.82875154c0-3.1759339 2.62359757-5.93761554 5.93761553-5.93761554h340.51534697c3.1759339 0 5.93761554 2.62359757 5.93761554 5.93761554v95.96843721c0 3.1759339-2.62359757 5.93761554-5.93761554 5.93761554s-5.93761554-2.62359757-5.93761554-5.93761554V456.76636708H61.982661v328.77819997h301.57563574c3.1759339 0 5.93761554 2.62359757 5.93761555 5.93761553s-2.76168163 5.79953147-5.93761555 5.79953146zM779.32946858 537.13130297H438.81412161c-3.1759339 0-5.93761554-2.62359757-5.93761554-5.93761554V190.67834047c0-3.1759339 2.62359757-5.93761554 5.93761554-5.93761553h340.51534697c3.1759339 0 5.93761554 2.62359757 5.93761553 5.93761553V531.33177153c0 3.1759339-2.62359757 5.79953147-5.93761553 5.79953144z m-334.57773143-11.73714698h328.77819996V196.61595601H444.75173715v328.77819998z" fill="#717071" p-id="1003"></path><path d="M189.57235304 668.31118117l-14.0845764 41.70139286h-38.38737487L198.40973431 529.67476253h49.01984922l63.9329301 180.3378115h-41.01097244l-14.7749968-41.70139286h-66.00419135z m57.58106232-32.03550709c-12.84181965-38.11120672-20.98878051-62.41400519-25.26938707-78.56984283h-0.27616815c-4.41869063 17.81284661-13.39415599 46.12008349-23.75046216 78.56984283h49.29601738zM460.35523845 644.14646676h78.70792691c43.49648592 0 60.06657581 22.64578949 60.06657581 46.12008349 0 20.2983601-10.77055842 33.554432-22.92195768 39.0777953 12.15139925 4.55677472 28.1691528 17.39859437 28.1691528 41.14905653 0 30.79275037-24.1647144 53.99087618-62.55208928 53.99087617h-81.46960856V644.14646676z m74.28923627 71.11330239c18.50326702 0 26.23597565-8.28504494 26.23597564-20.98878051 0-13.2560719-10.08013802-20.02219194-24.9932189-20.02219194h-37.14461813v41.01097245h35.90186139z m-36.03994548 79.12217915h35.21144099c21.12686459 0 30.65466627-8.83738127 30.65466628-25.13130297 0-14.49882864-9.3897176-23.75046215-30.79275036-23.75046215h-34.93527282v48.88176512zM688.74631057 395.31895045c-7.31845635 33.69251609-32.58784341 58.13339866-77.74133833 58.13339865-57.16681008 0-84.23129021-40.45863612-84.23129021-91.68783065 0-49.43410147 27.89298463-93.75909188 86.02638329-93.75909188 48.05326064 0 71.25138647 28.1691528 75.67007709 58.27148273h-38.93971122c-3.72827022-13.9464923-13.39415599-27.75490053-37.97312261-27.75490055-32.17359118 0-44.60115858 28.85957319-44.6011586 61.7235848 0 30.5165822 10.77055842 62.55208928 45.56774717 62.55208928 25.40747114 0 33.41634791-16.98434213 36.86844997-27.61681646h39.35396345zM779.32946858 537.13130297c-1.24275675 0-2.3474294-0.41425225-3.31401798-1.10467266-1.51892491-1.10467265-2.48551348-2.89976573-2.48551349-4.83294288V190.67834047c0-2.48551348 1.51892491-4.69485881 3.8663543-5.52336329L963.11938213 118.46036543c1.79509307-0.69042042 3.86635431-0.41425225 5.3852792 0.69042042s2.48551348 2.89976573 2.48551348 4.83294289l-1.65700898 339.27259021c0 2.48551348-1.51892491 4.69485881-3.86635431 5.52336329l-184.06608172 67.93736849c-0.69042042 0.27616816-1.38084082 0.41425225-2.07126122 0.41425224z m5.93761553-342.31044002v327.94969547l172.32893471-63.65676195 1.51892491-326.84502281L785.26708411 194.82086295z" fill="#717071" p-id="1004"></path><path d="M779.32946858 196.61595601H438.81412161c-2.89976573 0-5.24719513-2.07126124-5.79953146-4.83294287s1.10467265-5.5233633 3.8663543-6.48995187L629.09398701 118.46036543c0.55233633-0.27616816 1.24275675-0.27616816 1.93317716-0.27616816h334.02539509c2.89976573 0 5.24719513 2.07126124 5.79953146 4.83294288 0.55233633 2.76168163-1.10467265 5.5233633-3.8663543 6.48995186l-185.7230907 66.69461176c-0.55233633 0.27616816-1.24275675 0.41425225-1.93317714 0.41425224z m-305.71815822-11.73714698H778.36287999l152.9971632-54.95746476H631.99375274l-158.38244238 54.95746476zM704.07364371 905.2634664c-1.24275675 0-2.48551348-0.41425225-3.45210205-1.10467265-1.51892491-1.10467265-2.48551348-2.89976573-2.48551349-4.83294289V558.94858799c0-2.48551348 1.51892491-4.69485881 3.86635431-5.5233633L897.11519078 481.6215019c1.79509307-0.69042042 3.86635431-0.41425225 5.3852792 0.69042041s2.48551348 2.89976573 2.48551348 4.83294287v347.14338292c0 2.48551348-1.65700898 4.83294288-4.00443838 5.5233633l-195.11280829 65.31377091c-0.55233633 0-1.10467265 0.13808409-1.79509308 0.13808409z m5.93761554-342.31044003v328.22586365l183.37566131-61.30933255V495.42991013l-183.37566131 67.52311624zM396.69847651 456.76636708H56.18312954c-2.89976573 0-5.24719513-2.07126124-5.79953147-4.83294289-0.55233633-2.76168163 1.10467265-5.5233633 3.86635432-6.48995186l193.04154707-68.35162075c0.69042042-0.27616816 1.24275675-0.27616816 1.93317713-0.27616817h189.58944502c3.1759339 0 5.93761554 2.62359757 5.93761554 5.93761556v55.64788517c0 2.62359757-1.65700898 4.83294288-4.14252248 5.66144736l-42.1156451 12.70373558c-0.69042042-0.13808409-1.24275675 0-1.79509306 0z m-306.40857865-11.73714699h305.44199007l37.14461814-11.18481067v-45.42966308H250.19126518l-159.90136732 56.61447375z" fill="#717071" p-id="1005"></path></svg>